<?xml version="1.0" encoding="utf-8"?>
<!-- Generator: Adobe Illustrator 13.0.2, SVG Export Plug-In . SVG Version: 6.00 Build 14948)  -->
<!DOCTYPE svg PUBLIC "-//W3C//DTD SVG 1.1 Tiny//EN" "http://www.w3.org/Graphics/SVG/1.1/DTD/svg11-tiny.dtd">
<svg version="1.1" baseProfile="tiny" id="Layer_1" xmlns="http://www.w3.org/2000/svg" xmlns:xlink="http://www.w3.org/1999/xlink"
	 x="0px" y="0px" width="211.375px" height="212.095px" viewBox="0 0 211.375 212.095" xml:space="preserve">
<g>
	<path fill="#2C286B" d="M134.051,124.789c-0.654-2.451-1.014-4.988-1.923-7.367c5.381-3.761,10.766-8.202,15.447-13.052
		c-1.516-3.553-3.353-6.941-5.407-10.211c-6.934,0.826-13.811,2.513-20.056,4.674c-1.738-1.849-3.267-3.906-5.215-5.548
		c-1.811-1.789-3.788-3.381-5.849-4.873c2.259-6.387,3.751-12.771,4.816-19.641c-3.322-1.908-6.76-3.68-10.351-5.049
		c-5.152,4.796-9.648,9.973-13.509,15.601c-2.429-0.77-4.958-1.088-7.46-1.527c-2.519-0.265-5.064-0.504-7.599-0.478
		c-1.924-6.259-4.511-12.716-7.675-18.707c-3.817,0.424-7.606,1.01-11.317,2.017c-1.37,6.774-1.895,13.878-1.766,20.53
		c-2.377,0.883-4.667,2.017-6.924,3.166c-2.18,1.305-4.428,2.506-6.421,4.096c-5.331-4.052-11.096-7.63-17.203-10.627
		c-2.947,2.485-5.486,5.389-8.037,8.256c3.108,6.465,6.506,12.243,10.708,17.67c-1.39,2.131-2.667,4.324-3.718,6.643
		c-1.231,2.23-1.922,4.698-2.884,7.047c-6.559-0.116-13.328,0.372-20.163,1.495c-0.681,3.795-1.404,7.591-1.547,11.451
		c6.06,3.41,12.573,6.074,19.009,7.997c0.002,2.546,0.573,5.043,0.839,7.565c0.654,2.452,1.015,4.989,1.923,7.368
		c-5.381,3.761-10.766,8.2-15.448,13.052c1.518,3.552,3.352,6.941,5.409,10.21c6.932-0.825,13.811-2.511,20.055-4.673
		c1.738,1.849,3.267,3.905,5.214,5.548c1.811,1.79,3.789,3.381,5.848,4.873c-2.258,6.387-3.751,12.771-4.816,19.641
		c3.323,1.907,6.761,3.68,10.352,5.049c5.153-4.797,9.649-9.973,13.509-15.601c2.429,0.77,4.958,1.088,7.46,1.526
		c2.519,0.266,5.064,0.504,7.599,0.478c1.924,6.26,4.511,12.717,7.675,18.708c3.817-0.424,7.606-1.011,11.317-2.018
		c1.37-6.774,1.895-13.878,1.766-20.53c2.377-0.883,4.667-2.017,6.924-3.165c2.18-1.306,4.427-2.506,6.42-4.096
		c5.332,4.052,11.098,7.63,17.203,10.628c2.947-2.485,5.486-5.39,8.037-8.257c-3.106-6.466-6.507-12.243-10.709-17.671
		c1.39-2.131,2.668-4.323,3.718-6.643c1.232-2.23,1.923-4.698,2.885-7.047c6.559,0.117,13.328-0.371,20.163-1.495
		c0.682-3.795,1.404-7.59,1.546-11.45c-6.058-3.412-12.571-6.074-19.007-7.997C134.889,129.809,134.316,127.312,134.051,124.789z
		 M94.034,166.834c-6.549,3.553-14.389,5.003-21.775,4.028c-7.345-1.063-14.585-4.281-19.958-9.578
		c-5.54-5.141-9.096-11.999-10.587-19.413c-1.26-7.456-0.393-15.135,2.941-21.916c3.122-6.868,8.731-12.464,15.21-16.085
		c6.549-3.553,14.389-5.003,21.775-4.028c7.345,1.063,14.585,4.281,19.957,9.578c5.542,5.14,9.096,12,10.588,19.413
		c1.26,7.457,0.394,15.134-2.941,21.917C106.123,157.619,100.513,163.214,94.034,166.834z"/>
</g>
<g>
	<path fill="#2C286B" d="M194.989,49.118c-0.112-2.5-0.548-4.964-1.148-7.389c-0.71-2.395-1.584-4.741-2.752-6.954
		c4.105-4.296,7.642-9.347,10.408-15.018c-2.605-3.366-5.563-6.473-8.92-9.076c-6.082,2.338-11.517,5.622-16.087,9.633
		c-2.191-1.198-4.565-2.039-6.97-2.697c-2.409-0.667-4.899-0.98-7.393-1.138c-1.67-5.632-4.293-11.298-7.812-16.479
		c-4.226,0.499-8.321,1.63-12.286,3.125c-1.024,6.478-0.896,12.837,0.253,18.75c-2.068,1.398-4.058,2.929-5.798,4.723
		c-1.74,1.786-3.362,3.712-4.646,5.855c-5.821-1.438-11.902-1.933-18.205-1.529c-1.683,3.902-2.771,8.044-3.445,12.249
		c5.097,4.125,10.661,7.191,16.386,9.142c0.113,2.5,0.549,4.965,1.148,7.389c0.709,2.396,1.583,4.742,2.751,6.954
		c-4.107,4.298-7.643,9.347-10.41,15.019c2.608,3.365,5.565,6.474,8.92,9.077c6.084-2.338,11.52-5.622,16.089-9.634
		c2.192,1.198,4.566,2.04,6.97,2.697c2.41,0.666,4.899,0.979,7.393,1.137c1.671,5.631,4.295,11.297,7.812,16.479
		c4.226-0.499,8.32-1.63,12.287-3.124c1.023-6.478,0.894-12.837-0.255-18.752c2.07-1.399,4.058-2.927,5.798-4.723
		c1.741-1.786,3.362-3.712,4.648-5.855c5.819,1.439,11.9,1.935,18.203,1.531c1.684-3.901,2.771-8.044,3.446-12.25
		C206.277,54.136,200.714,51.069,194.989,49.118z M179.3,45.683c1.702,6.483-0.036,13.788-4.939,18.545
		c-4.601,4.783-12.062,6.813-18.447,5.018c-6.634-1.621-11.833-7.041-13.65-13.495c-1.701-6.487,0.039-13.789,4.937-18.546
		c4.601-4.781,12.062-6.811,18.449-5.017C172.279,33.808,177.482,39.233,179.3,45.683z"/>
</g>
</svg>
